M48
; DRILL file {KiCad 7.0.7} date 2023 December 20, Wednesday 16:21:09
; FORMAT={-:-/ absolute / inch / decimal}
; #@! TF.CreationDate,2023-12-20T16:21:09-06:00
; #@! TF.GenerationSoftware,Kicad,Pcbnew,7.0.7
; #@! TF.FileFunction,Plated,1,2,PTH
FMAT,2
INCH
; #@! TA.AperFunction,Plated,PTH,ViaDrill
T1C0.0118
; #@! TA.AperFunction,Plated,PTH,ComponentDrill
T2C0.0315
; #@! TA.AperFunction,Plated,PTH,ComponentDrill
T3C0.0394
; #@! TA.AperFunction,Plated,PTH,ComponentDrill
T4C0.1260
%
G90
G05
T1
X3.896Y-3.6441
X4.2023Y-3.9237
X4.36Y-3.9109
X4.3866Y-3.5425
X4.5581Y-3.5645
X4.576Y-3.9199
X4.5857Y-3.3121
X4.7189Y-3.4307
X4.7248Y-3.4838
X4.737Y-3.9237
X4.7441Y-3.3842
X4.7899Y-3.3315
X4.7943Y-3.2316
X4.9194Y-3.4066
X5.1074Y-3.2369
X5.4829Y-3.5243
X5.6532Y-3.3236
T2
X5.8247Y-3.252
X5.8247Y-3.3307
X5.8247Y-3.4094
X5.8247Y-3.4882
X5.8247Y-3.5669
X5.8247Y-3.6457
X5.8247Y-3.7244
X5.8247Y-3.8031
X5.8247Y-3.8819
X5.8247Y-3.9606
X5.9034Y-3.252
X5.9034Y-3.3307
X5.9034Y-3.4094
X5.9034Y-3.4882
X5.9034Y-3.5669
X5.9034Y-3.6457
X5.9034Y-3.7244
X5.9034Y-3.8031
X5.9034Y-3.8819
X5.9034Y-3.9606
T3
X3.6286Y-3.2557
X3.6286Y-3.3557
X3.6286Y-3.4557
X3.6286Y-3.5557
X3.6286Y-3.6557
X3.6286Y-3.7557
X3.6286Y-3.8557
X3.6286Y-3.9557
T4
X3.6614Y-2.9764
X3.6614Y-4.2362
X5.8268Y-2.9764
X5.8268Y-4.2362
T0
M30
