%TF.GenerationSoftware,KiCad,Pcbnew,7.0.7*%
%TF.CreationDate,2023-12-20T16:21:06-06:00*%
%TF.ProjectId,MAR,4d41522e-6b69-4636-9164-5f7063625858,rev?*%
%TF.SameCoordinates,Original*%
%TF.FileFunction,Copper,L2,Bot*%
%TF.FilePolarity,Positive*%
%FSLAX46Y46*%
G04 Gerber Fmt 4.6, Leading zero omitted, Abs format (unit mm)*
G04 Created by KiCad (PCBNEW 7.0.7) date 2023-12-20 16:21:06*
%MOMM*%
%LPD*%
G01*
G04 APERTURE LIST*
%TA.AperFunction,ComponentPad*%
%ADD10C,6.400000*%
%TD*%
%TA.AperFunction,ComponentPad*%
%ADD11R,1.700000X1.700000*%
%TD*%
%TA.AperFunction,ComponentPad*%
%ADD12O,1.700000X1.700000*%
%TD*%
%TA.AperFunction,ComponentPad*%
%ADD13R,1.350000X1.350000*%
%TD*%
%TA.AperFunction,ComponentPad*%
%ADD14O,1.350000X1.350000*%
%TD*%
%TA.AperFunction,ViaPad*%
%ADD15C,0.500000*%
%TD*%
%TA.AperFunction,Conductor*%
%ADD16C,0.150000*%
%TD*%
%TA.AperFunction,Conductor*%
%ADD17C,0.500000*%
%TD*%
G04 APERTURE END LIST*
D10*
%TO.P,H3,1*%
%TO.N,N/C*%
X148000000Y-107600000D03*
%TD*%
%TO.P,H1,1*%
%TO.N,N/C*%
X93000000Y-75600000D03*
%TD*%
%TO.P,H4,1*%
%TO.N,N/C*%
X148000000Y-75600000D03*
%TD*%
%TO.P,H2,1*%
%TO.N,N/C*%
X93000000Y-107600000D03*
%TD*%
D11*
%TO.P,J2,1,Pin_1*%
%TO.N,/Q0*%
X92165300Y-100475000D03*
D12*
%TO.P,J2,2,Pin_2*%
%TO.N,/Q1*%
X92165300Y-97935000D03*
%TO.P,J2,3,Pin_3*%
%TO.N,/Q2*%
X92165300Y-95395000D03*
%TO.P,J2,4,Pin_4*%
%TO.N,/Q3*%
X92165300Y-92855000D03*
%TO.P,J2,5,Pin_5*%
%TO.N,/Q4*%
X92165300Y-90315000D03*
%TO.P,J2,6,Pin_6*%
%TO.N,/Q5*%
X92165300Y-87775000D03*
%TO.P,J2,7,Pin_7*%
%TO.N,/Q6*%
X92165300Y-85235000D03*
%TO.P,J2,8,Pin_8*%
%TO.N,/Q7*%
X92165300Y-82695000D03*
%TD*%
D13*
%TO.P,J1,1,Pin_1*%
%TO.N,/D0*%
X147946900Y-82600000D03*
D14*
%TO.P,J1,2,Pin_2*%
%TO.N,CLR*%
X149946900Y-82600000D03*
%TO.P,J1,3,Pin_3*%
%TO.N,/D1*%
X147946900Y-84600000D03*
%TO.P,J1,4,Pin_4*%
%TO.N,~{LOAD}*%
X149946900Y-84600000D03*
%TO.P,J1,5,Pin_5*%
%TO.N,/D2*%
X147946900Y-86600000D03*
%TO.P,J1,6,Pin_6*%
%TO.N,unconnected-(J1-Pin_6-Pad6)*%
X149946900Y-86600000D03*
%TO.P,J1,7,Pin_7*%
%TO.N,/D3*%
X147946900Y-88600000D03*
%TO.P,J1,8,Pin_8*%
%TO.N,unconnected-(J1-Pin_8-Pad8)*%
X149946900Y-88600000D03*
%TO.P,J1,9,Pin_9*%
%TO.N,/D4*%
X147946900Y-90600000D03*
%TO.P,J1,10,Pin_10*%
%TO.N,unconnected-(J1-Pin_10-Pad10)*%
X149946900Y-90600000D03*
%TO.P,J1,11,Pin_11*%
%TO.N,/D5*%
X147946900Y-92600000D03*
%TO.P,J1,12,Pin_12*%
%TO.N,unconnected-(J1-Pin_12-Pad12)*%
X149946900Y-92600000D03*
%TO.P,J1,13,Pin_13*%
%TO.N,/D6*%
X147946900Y-94600000D03*
%TO.P,J1,14,Pin_14*%
%TO.N,unconnected-(J1-Pin_14-Pad14)*%
X149946900Y-94600000D03*
%TO.P,J1,15,Pin_15*%
%TO.N,/D7*%
X147946900Y-96600000D03*
%TO.P,J1,16,Pin_16*%
%TO.N,VCC*%
X149946900Y-96600000D03*
%TO.P,J1,17,Pin_17*%
%TO.N,unconnected-(J1-Pin_17-Pad17)*%
X147946900Y-98600000D03*
%TO.P,J1,18,Pin_18*%
%TO.N,GND*%
X149946900Y-98600000D03*
%TO.P,J1,19,Pin_19*%
%TO.N,unconnected-(J1-Pin_19-Pad19)*%
X147946900Y-100600000D03*
%TO.P,J1,20,Pin_20*%
%TO.N,CLK*%
X149946900Y-100600000D03*
%TD*%
D15*
%TO.N,CLK*%
X115775200Y-90538100D03*
X111419400Y-89980600D03*
%TO.N,VCC*%
X121774300Y-82082500D03*
X129727500Y-82217100D03*
X143590400Y-84420700D03*
%TO.N,/D3*%
X124951500Y-86527500D03*
%TO.N,~{LOAD}*%
X139264600Y-89516700D03*
%TO.N,/D1*%
X116475900Y-84127100D03*
%TO.N,/Q2*%
X98958300Y-92559100D03*
%TO.N,/Q4*%
X120318600Y-99662500D03*
X121663200Y-84619400D03*
%TO.N,/Q5*%
X120501200Y-85959300D03*
X116230900Y-99564900D03*
%TO.N,/Q6*%
X110744000Y-99336800D03*
X119860000Y-87140600D03*
%TO.N,/Q7*%
X106739100Y-99662500D03*
X120010700Y-88488600D03*
%TD*%
D16*
%TO.N,CLK*%
X111419400Y-89980600D02*
X115217700Y-89980600D01*
X115217700Y-89980600D02*
X115775200Y-90538100D01*
D17*
%TO.N,VCC*%
X141386800Y-82217100D02*
X129727500Y-82217100D01*
X129592900Y-82082500D02*
X121774300Y-82082500D01*
X129727500Y-82217100D02*
X129592900Y-82082500D01*
X151130500Y-82120100D02*
X150416500Y-81406100D01*
X149946900Y-96600000D02*
X151130500Y-95416400D01*
X151130500Y-95416400D02*
X151130500Y-82120100D01*
X146605000Y-81406100D02*
X143590400Y-84420700D01*
X143590400Y-84420700D02*
X141386800Y-82217100D01*
X150416500Y-81406100D02*
X146605000Y-81406100D01*
D16*
%TO.N,/D3*%
X147946900Y-88600000D02*
X127024000Y-88600000D01*
X127024000Y-88600000D02*
X124951500Y-86527500D01*
%TO.N,~{LOAD}*%
X149046800Y-88826200D02*
X148356300Y-89516700D01*
X149046800Y-86175100D02*
X149046800Y-88826200D01*
X149721800Y-85500100D02*
X149046800Y-86175100D01*
X148356300Y-89516700D02*
X139264600Y-89516700D01*
X149946900Y-85500100D02*
X149721800Y-85500100D01*
X149946900Y-84600000D02*
X149946900Y-85500100D01*
%TO.N,/D1*%
X147946900Y-84600000D02*
X147046800Y-84600000D01*
X142029100Y-84127100D02*
X142897800Y-84995800D01*
X142897800Y-84995800D02*
X146651000Y-84995800D01*
X116475900Y-84127100D02*
X142029100Y-84127100D01*
X146651000Y-84995800D02*
X147046800Y-84600000D01*
%TO.N,/Q2*%
X92165300Y-95395000D02*
X96122400Y-95395000D01*
X96122400Y-95395000D02*
X98958300Y-92559100D01*
%TO.N,/Q4*%
X92030800Y-89239900D02*
X91090200Y-88299300D01*
X92165300Y-90315000D02*
X92165300Y-89239900D01*
X96396000Y-84619400D02*
X121663200Y-84619400D01*
X91090200Y-88299300D02*
X91090200Y-87305800D01*
X121663200Y-84619400D02*
X121663200Y-98317900D01*
X91731800Y-86664200D02*
X94351200Y-86664200D01*
X91090200Y-87305800D02*
X91731800Y-86664200D01*
X94351200Y-86664200D02*
X96396000Y-84619400D01*
X92165300Y-89239900D02*
X92030800Y-89239900D01*
X121663200Y-98317900D02*
X120318600Y-99662500D01*
%TO.N,/Q5*%
X93240400Y-87775000D02*
X94884000Y-87775000D01*
X116230900Y-99564900D02*
X120501200Y-95294600D01*
X94884000Y-87775000D02*
X96699700Y-85959300D01*
X120501200Y-95294600D02*
X120501200Y-85959300D01*
X96699700Y-85959300D02*
X120501200Y-85959300D01*
X92165300Y-87775000D02*
X93240400Y-87775000D01*
%TO.N,/Q6*%
X91627800Y-86310100D02*
X90790000Y-87147900D01*
X92165300Y-86310100D02*
X91627800Y-86310100D01*
X106352300Y-91434900D02*
X110744000Y-95826600D01*
X90790000Y-87147900D02*
X90790000Y-90488700D01*
X111174000Y-95826600D02*
X119860000Y-87140600D01*
X110744000Y-95826600D02*
X110744000Y-99336800D01*
X91736200Y-91434900D02*
X106352300Y-91434900D01*
X90790000Y-90488700D02*
X91736200Y-91434900D01*
X92165300Y-85235000D02*
X92165300Y-86310100D01*
X110744000Y-95826600D02*
X111174000Y-95826600D01*
%TO.N,/Q7*%
X120010700Y-90809600D02*
X120010700Y-88488600D01*
X92165300Y-82695000D02*
X92165300Y-83770100D01*
X92030900Y-83770100D02*
X90443100Y-85357900D01*
X92165300Y-83770100D02*
X92030900Y-83770100D01*
X91617100Y-91779800D02*
X98856400Y-91779800D01*
X90443100Y-90605800D02*
X91617100Y-91779800D01*
X111002500Y-99817800D02*
X120010700Y-90809600D01*
X98856400Y-91779800D02*
X106739100Y-99662500D01*
X106894400Y-99817800D02*
X111002500Y-99817800D01*
X90443100Y-85357900D02*
X90443100Y-90605800D01*
X106739100Y-99662500D02*
X106894400Y-99817800D01*
%TD*%
M02*
