%TF.GenerationSoftware,KiCad,Pcbnew,7.0.7*%
%TF.CreationDate,2024-01-06T16:12:51-06:00*%
%TF.ProjectId,MAR,4d41522e-6b69-4636-9164-5f7063625858,rev?*%
%TF.SameCoordinates,Original*%
%TF.FileFunction,Legend,Top*%
%TF.FilePolarity,Positive*%
%FSLAX46Y46*%
G04 Gerber Fmt 4.6, Leading zero omitted, Abs format (unit mm)*
G04 Created by KiCad (PCBNEW 7.0.7) date 2024-01-06 16:12:51*
%MOMM*%
%LPD*%
G01*
G04 APERTURE LIST*
%ADD10C,0.300000*%
%ADD11C,0.150000*%
%ADD12C,0.120000*%
G04 APERTURE END LIST*
D10*
G36*
X115577529Y-74260000D02*
G01*
X115556807Y-74258618D01*
X115534789Y-74253006D01*
X115517089Y-74243076D01*
X115503706Y-74228829D01*
X115494640Y-74210266D01*
X115489891Y-74187384D01*
X115489114Y-74171584D01*
X115489114Y-72512686D01*
X115490495Y-72492078D01*
X115496107Y-72470182D01*
X115506037Y-72452580D01*
X115523651Y-72437124D01*
X115543078Y-72428966D01*
X115566823Y-72425102D01*
X115577529Y-72424759D01*
X115599769Y-72426768D01*
X115620325Y-72432796D01*
X115639199Y-72442842D01*
X115656389Y-72456907D01*
X115669429Y-72471698D01*
X115676692Y-72481912D01*
X116361549Y-73523363D01*
X116321982Y-73529225D01*
X117009281Y-72481912D01*
X117021541Y-72465447D01*
X117038394Y-72449372D01*
X117057582Y-72437317D01*
X117079106Y-72429280D01*
X117098827Y-72425652D01*
X117115771Y-72424759D01*
X117137583Y-72426905D01*
X117158878Y-72435149D01*
X117174850Y-72449574D01*
X117185497Y-72470182D01*
X117190303Y-72492078D01*
X117191486Y-72512686D01*
X117191486Y-74171584D01*
X117190105Y-74192306D01*
X117184492Y-74214324D01*
X117174563Y-74232024D01*
X117160316Y-74245407D01*
X117141752Y-74254474D01*
X117118871Y-74259222D01*
X117103070Y-74260000D01*
X117082462Y-74258618D01*
X117060566Y-74253006D01*
X117042964Y-74243076D01*
X117027508Y-74225462D01*
X117019350Y-74206035D01*
X117015486Y-74182290D01*
X117015143Y-74171584D01*
X117015143Y-72689030D01*
X117068388Y-72707592D01*
X116441172Y-73652323D01*
X116428526Y-73668929D01*
X116414401Y-73682720D01*
X116395499Y-73695554D01*
X116374467Y-73704336D01*
X116355314Y-73708557D01*
X116334682Y-73709965D01*
X116314767Y-73707938D01*
X116296054Y-73701859D01*
X116278543Y-73691727D01*
X116262234Y-73677541D01*
X116249561Y-73662624D01*
X116242358Y-73652323D01*
X115615143Y-72707592D01*
X115665457Y-72724200D01*
X115665457Y-74171584D01*
X115664083Y-74192306D01*
X115658502Y-74214324D01*
X115648627Y-74232024D01*
X115631110Y-74247566D01*
X115611790Y-74255769D01*
X115588177Y-74259654D01*
X115577529Y-74260000D01*
G37*
G36*
X118371997Y-72426815D02*
G01*
X118393750Y-72433501D01*
X118412584Y-72444790D01*
X118428498Y-72460681D01*
X118439529Y-72477439D01*
X118446894Y-72493147D01*
X119135659Y-74135436D01*
X119142605Y-74154990D01*
X119146092Y-74177416D01*
X119143807Y-74197599D01*
X119135750Y-74215541D01*
X119121921Y-74231240D01*
X119102319Y-74244697D01*
X119087788Y-74251695D01*
X119068256Y-74258000D01*
X119045923Y-74260943D01*
X119025905Y-74258400D01*
X119004936Y-74248108D01*
X118990007Y-74233496D01*
X118977392Y-74213399D01*
X118972994Y-74203824D01*
X118799581Y-73788122D01*
X117896371Y-73788122D01*
X117724424Y-74203824D01*
X117715578Y-74222417D01*
X117702309Y-74240592D01*
X117686584Y-74253138D01*
X117664470Y-74260763D01*
X117643340Y-74260925D01*
X117619753Y-74255458D01*
X117609630Y-74251695D01*
X117591129Y-74242185D01*
X117572982Y-74228279D01*
X117560369Y-74212132D01*
X117553290Y-74193742D01*
X117551744Y-74173110D01*
X117555732Y-74150236D01*
X117560781Y-74135436D01*
X117778998Y-73611779D01*
X117968178Y-73611779D01*
X118725331Y-73611779D01*
X118344801Y-72703196D01*
X117968178Y-73611779D01*
X117778998Y-73611779D01*
X118245150Y-72493147D01*
X118255311Y-72473445D01*
X118267475Y-72457083D01*
X118284717Y-72441856D01*
X118304844Y-72431437D01*
X118323821Y-72426428D01*
X118344801Y-72424759D01*
X118351640Y-72424759D01*
X118371997Y-72426815D01*
G37*
G36*
X120276121Y-72425257D02*
G01*
X120305338Y-72426751D01*
X120333640Y-72429241D01*
X120361026Y-72432727D01*
X120387495Y-72437209D01*
X120413049Y-72442688D01*
X120437687Y-72449162D01*
X120461409Y-72456632D01*
X120484216Y-72465099D01*
X120506106Y-72474561D01*
X120527080Y-72485020D01*
X120547139Y-72496475D01*
X120566281Y-72508925D01*
X120584508Y-72522372D01*
X120601819Y-72536815D01*
X120618213Y-72552254D01*
X120633652Y-72568591D01*
X120648095Y-72585852D01*
X120661542Y-72604037D01*
X120673992Y-72623145D01*
X120685447Y-72643177D01*
X120695905Y-72664132D01*
X120705368Y-72686011D01*
X120713834Y-72708813D01*
X120721305Y-72732539D01*
X120727779Y-72757189D01*
X120733257Y-72782762D01*
X120737740Y-72809258D01*
X120741226Y-72836678D01*
X120743716Y-72865022D01*
X120745210Y-72894289D01*
X120745708Y-72924480D01*
X120745708Y-73008499D01*
X120745323Y-73034895D01*
X120744166Y-73060592D01*
X120742239Y-73085590D01*
X120739541Y-73109890D01*
X120736072Y-73133492D01*
X120731832Y-73156396D01*
X120726821Y-73178601D01*
X120721040Y-73200108D01*
X120714487Y-73220916D01*
X120707164Y-73241026D01*
X120699069Y-73260438D01*
X120690204Y-73279151D01*
X120680568Y-73297166D01*
X120670161Y-73314482D01*
X120658983Y-73331100D01*
X120647034Y-73347020D01*
X120634335Y-73362214D01*
X120620908Y-73376657D01*
X120606751Y-73390348D01*
X120591866Y-73403287D01*
X120576251Y-73415475D01*
X120559908Y-73426910D01*
X120542836Y-73437594D01*
X120525035Y-73447526D01*
X120506505Y-73456706D01*
X120487246Y-73465134D01*
X120467258Y-73472811D01*
X120446541Y-73479735D01*
X120425095Y-73485908D01*
X120402921Y-73491329D01*
X120380017Y-73495998D01*
X120356385Y-73499916D01*
X120754012Y-74143740D01*
X120763042Y-74161867D01*
X120769155Y-74183303D01*
X120769520Y-74203379D01*
X120762370Y-74225676D01*
X120750089Y-74242761D01*
X120732059Y-74258486D01*
X120723238Y-74264396D01*
X120703961Y-74273931D01*
X120683086Y-74279179D01*
X120662783Y-74278797D01*
X120656804Y-74277585D01*
X120638123Y-74270172D01*
X120621160Y-74257702D01*
X120607361Y-74242156D01*
X120603070Y-74236064D01*
X120152198Y-73508220D01*
X119678855Y-73508220D01*
X119678855Y-74171584D01*
X119677481Y-74192306D01*
X119671900Y-74214324D01*
X119662025Y-74232024D01*
X119644509Y-74247566D01*
X119625189Y-74255769D01*
X119601575Y-74259654D01*
X119590928Y-74260000D01*
X119570205Y-74258618D01*
X119548188Y-74253006D01*
X119530487Y-74243076D01*
X119517104Y-74228829D01*
X119508038Y-74210266D01*
X119503289Y-74187384D01*
X119502512Y-74171584D01*
X119502512Y-72601102D01*
X119678855Y-72601102D01*
X119678855Y-73331877D01*
X120245987Y-73331877D01*
X120267105Y-73331579D01*
X120287470Y-73330686D01*
X120307084Y-73329198D01*
X120335095Y-73325849D01*
X120361415Y-73321161D01*
X120386043Y-73315133D01*
X120408979Y-73307765D01*
X120430224Y-73299058D01*
X120449777Y-73289012D01*
X120467639Y-73277626D01*
X120483809Y-73264901D01*
X120493649Y-73255673D01*
X120507181Y-73240469D01*
X120519381Y-73223616D01*
X120530250Y-73205115D01*
X120539788Y-73184965D01*
X120547996Y-73163166D01*
X120554872Y-73139719D01*
X120560418Y-73114623D01*
X120564633Y-73087878D01*
X120567516Y-73059485D01*
X120568699Y-73039640D01*
X120569291Y-73019063D01*
X120569365Y-73008499D01*
X120569365Y-72924480D01*
X120569069Y-72903479D01*
X120568182Y-72883218D01*
X120566703Y-72863697D01*
X120563376Y-72835805D01*
X120558717Y-72809579D01*
X120552728Y-72785018D01*
X120545408Y-72762123D01*
X120536757Y-72740894D01*
X120526775Y-72721331D01*
X120515462Y-72703433D01*
X120502818Y-72687202D01*
X120493649Y-72677306D01*
X120478607Y-72663687D01*
X120461873Y-72651408D01*
X120443448Y-72640469D01*
X120423330Y-72630869D01*
X120401522Y-72622609D01*
X120378021Y-72615688D01*
X120352830Y-72610107D01*
X120325946Y-72605865D01*
X120297371Y-72602963D01*
X120277382Y-72601772D01*
X120256640Y-72601176D01*
X120245987Y-72601102D01*
X119678855Y-72601102D01*
X119502512Y-72601102D01*
X119502512Y-72512686D01*
X119503894Y-72492078D01*
X119509506Y-72470182D01*
X119519435Y-72452580D01*
X119537049Y-72437124D01*
X119556477Y-72428966D01*
X119580221Y-72425102D01*
X119590928Y-72424759D01*
X120245987Y-72424759D01*
X120276121Y-72425257D01*
G37*
G36*
X121889253Y-74659092D02*
G01*
X121868503Y-74657550D01*
X121847880Y-74652008D01*
X121830554Y-74642437D01*
X121816525Y-74628836D01*
X121815003Y-74626852D01*
X121805325Y-74609694D01*
X121800227Y-74590460D01*
X121799708Y-74569150D01*
X121803010Y-74548800D01*
X121803768Y-74545764D01*
X122377739Y-72313872D01*
X122384978Y-72294171D01*
X122396656Y-72274937D01*
X122411596Y-72260511D01*
X122429800Y-72250894D01*
X122451267Y-72246086D01*
X122463224Y-72245484D01*
X122485069Y-72246957D01*
X122506486Y-72252246D01*
X122524118Y-72261383D01*
X122539428Y-72276259D01*
X122549444Y-72295231D01*
X122553482Y-72314885D01*
X122552940Y-72337165D01*
X122548709Y-72358813D01*
X121974738Y-74590216D01*
X121968143Y-74610058D01*
X121956923Y-74629430D01*
X121942097Y-74643958D01*
X121923664Y-74653644D01*
X121901625Y-74658487D01*
X121889253Y-74659092D01*
G37*
G36*
X123735241Y-74260000D02*
G01*
X123715396Y-74258565D01*
X123695844Y-74253520D01*
X123677564Y-74243655D01*
X123669783Y-74237041D01*
X123657676Y-74220573D01*
X123650053Y-74200481D01*
X123647026Y-74179297D01*
X123646825Y-74171584D01*
X123646825Y-72512686D01*
X123648260Y-72492292D01*
X123653304Y-72472560D01*
X123663169Y-72454623D01*
X123669783Y-72447229D01*
X123686251Y-72435379D01*
X123706344Y-72427919D01*
X123727527Y-72424956D01*
X123735241Y-72424759D01*
X123755452Y-72426163D01*
X123775124Y-72431100D01*
X123793175Y-72440756D01*
X123800698Y-72447229D01*
X123812547Y-72463067D01*
X123820008Y-72483102D01*
X123822970Y-72504723D01*
X123823168Y-72512686D01*
X123823168Y-74171584D01*
X123821764Y-74191428D01*
X123816826Y-74210980D01*
X123807171Y-74229260D01*
X123800698Y-74237041D01*
X123784650Y-74249148D01*
X123764595Y-74256771D01*
X123743120Y-74259798D01*
X123735241Y-74260000D01*
G37*
G36*
X125139484Y-72425257D02*
G01*
X125168702Y-72426751D01*
X125197003Y-72429241D01*
X125224389Y-72432727D01*
X125250859Y-72437209D01*
X125276413Y-72442688D01*
X125301051Y-72449162D01*
X125324773Y-72456632D01*
X125347579Y-72465099D01*
X125369469Y-72474561D01*
X125390444Y-72485020D01*
X125410502Y-72496475D01*
X125429645Y-72508925D01*
X125447871Y-72522372D01*
X125465182Y-72536815D01*
X125481577Y-72552254D01*
X125497016Y-72568591D01*
X125511458Y-72585852D01*
X125524905Y-72604037D01*
X125537356Y-72623145D01*
X125548810Y-72643177D01*
X125559269Y-72664132D01*
X125568732Y-72686011D01*
X125577198Y-72708813D01*
X125584668Y-72732539D01*
X125591143Y-72757189D01*
X125596621Y-72782762D01*
X125601103Y-72809258D01*
X125604589Y-72836678D01*
X125607080Y-72865022D01*
X125608574Y-72894289D01*
X125609072Y-72924480D01*
X125609072Y-73008499D01*
X125608686Y-73034895D01*
X125607530Y-73060592D01*
X125605603Y-73085590D01*
X125602905Y-73109890D01*
X125599436Y-73133492D01*
X125595196Y-73156396D01*
X125590185Y-73178601D01*
X125584403Y-73200108D01*
X125577851Y-73220916D01*
X125570527Y-73241026D01*
X125562433Y-73260438D01*
X125553567Y-73279151D01*
X125543931Y-73297166D01*
X125533524Y-73314482D01*
X125522346Y-73331100D01*
X125510398Y-73347020D01*
X125497699Y-73362214D01*
X125484271Y-73376657D01*
X125470115Y-73390348D01*
X125455229Y-73403287D01*
X125439615Y-73415475D01*
X125423272Y-73426910D01*
X125406199Y-73437594D01*
X125388398Y-73447526D01*
X125369868Y-73456706D01*
X125350609Y-73465134D01*
X125330621Y-73472811D01*
X125309905Y-73479735D01*
X125288459Y-73485908D01*
X125266284Y-73491329D01*
X125243381Y-73495998D01*
X125219749Y-73499916D01*
X125617376Y-74143740D01*
X125626405Y-74161867D01*
X125632519Y-74183303D01*
X125632883Y-74203379D01*
X125625734Y-74225676D01*
X125613452Y-74242761D01*
X125595423Y-74258486D01*
X125586601Y-74264396D01*
X125567324Y-74273931D01*
X125546449Y-74279179D01*
X125526146Y-74278797D01*
X125520167Y-74277585D01*
X125501487Y-74270172D01*
X125484523Y-74257702D01*
X125470724Y-74242156D01*
X125466434Y-74236064D01*
X125015562Y-73508220D01*
X124542219Y-73508220D01*
X124542219Y-74171584D01*
X124540845Y-74192306D01*
X124535264Y-74214324D01*
X124525389Y-74232024D01*
X124507872Y-74247566D01*
X124488552Y-74255769D01*
X124464939Y-74259654D01*
X124454291Y-74260000D01*
X124433569Y-74258618D01*
X124411551Y-74253006D01*
X124393851Y-74243076D01*
X124380468Y-74228829D01*
X124371402Y-74210266D01*
X124366653Y-74187384D01*
X124365876Y-74171584D01*
X124365876Y-72601102D01*
X124542219Y-72601102D01*
X124542219Y-73331877D01*
X125109351Y-73331877D01*
X125130468Y-73331579D01*
X125150834Y-73330686D01*
X125170448Y-73329198D01*
X125198459Y-73325849D01*
X125224778Y-73321161D01*
X125249406Y-73315133D01*
X125272343Y-73307765D01*
X125293588Y-73299058D01*
X125313141Y-73289012D01*
X125331003Y-73277626D01*
X125347173Y-73264901D01*
X125357013Y-73255673D01*
X125370544Y-73240469D01*
X125382744Y-73223616D01*
X125393614Y-73205115D01*
X125403152Y-73184965D01*
X125411359Y-73163166D01*
X125418236Y-73139719D01*
X125423782Y-73114623D01*
X125427996Y-73087878D01*
X125430880Y-73059485D01*
X125432063Y-73039640D01*
X125432654Y-73019063D01*
X125432728Y-73008499D01*
X125432728Y-72924480D01*
X125432433Y-72903479D01*
X125431545Y-72883218D01*
X125430066Y-72863697D01*
X125426739Y-72835805D01*
X125422081Y-72809579D01*
X125416092Y-72785018D01*
X125408772Y-72762123D01*
X125400120Y-72740894D01*
X125390138Y-72721331D01*
X125378826Y-72703433D01*
X125366182Y-72687202D01*
X125357013Y-72677306D01*
X125341971Y-72663687D01*
X125325237Y-72651408D01*
X125306811Y-72640469D01*
X125286694Y-72630869D01*
X125264885Y-72622609D01*
X125241385Y-72615688D01*
X125216193Y-72610107D01*
X125189310Y-72605865D01*
X125160735Y-72602963D01*
X125140745Y-72601772D01*
X125120004Y-72601176D01*
X125109351Y-72601102D01*
X124542219Y-72601102D01*
X124365876Y-72601102D01*
X124365876Y-72512686D01*
X124367257Y-72492078D01*
X124372869Y-72470182D01*
X124382799Y-72452580D01*
X124400413Y-72437124D01*
X124419840Y-72428966D01*
X124443585Y-72425102D01*
X124454291Y-72424759D01*
X125109351Y-72424759D01*
X125139484Y-72425257D01*
G37*
D11*
X98193922Y-109469819D02*
X98527255Y-110469819D01*
X98527255Y-110469819D02*
X98860588Y-109469819D01*
X99717731Y-110469819D02*
X99146303Y-110469819D01*
X99432017Y-110469819D02*
X99432017Y-109469819D01*
X99432017Y-109469819D02*
X99336779Y-109612676D01*
X99336779Y-109612676D02*
X99241541Y-109707914D01*
X99241541Y-109707914D02*
X99146303Y-109755533D01*
D12*
%TO.C,Q3*%
X128060000Y-100600000D02*
X128060000Y-98925000D01*
X128060000Y-100600000D02*
X128060000Y-101250000D01*
X124940000Y-100600000D02*
X124940000Y-99950000D01*
X124940000Y-100600000D02*
X124940000Y-101250000D01*
%TO.C,D4*%
X123135000Y-103915000D02*
X120865000Y-103915000D01*
X120865000Y-103915000D02*
X120865000Y-107800000D01*
X123135000Y-107800000D02*
X123135000Y-103915000D01*
%TO.C,Q6*%
X116060000Y-100600000D02*
X116060000Y-98925000D01*
X116060000Y-100600000D02*
X116060000Y-101250000D01*
X112940000Y-100600000D02*
X112940000Y-99950000D01*
X112940000Y-100600000D02*
X112940000Y-101250000D01*
%TO.C,D5*%
X120135000Y-103915000D02*
X117865000Y-103915000D01*
X117865000Y-103915000D02*
X117865000Y-107800000D01*
X120135000Y-107800000D02*
X120135000Y-103915000D01*
%TO.C,kibuzzard-6571E777*%
G36*
X141887084Y-74110602D02*
G01*
X141947012Y-74148106D01*
X141982731Y-74212598D01*
X141994637Y-74306062D01*
X141981937Y-74403694D01*
X141943837Y-74467987D01*
X141875575Y-74503706D01*
X141772387Y-74515613D01*
X141710475Y-74515613D01*
X141710475Y-74110800D01*
X141802550Y-74098100D01*
X141887084Y-74110602D01*
G37*
G36*
X142620922Y-73633717D02*
G01*
X142710816Y-73647052D01*
X142798970Y-73669133D01*
X142884535Y-73699749D01*
X142966687Y-73738604D01*
X143044635Y-73785324D01*
X143117629Y-73839460D01*
X143184965Y-73900490D01*
X143245994Y-73967825D01*
X143300130Y-74040819D01*
X143346850Y-74118767D01*
X143385705Y-74200919D01*
X143416321Y-74286484D01*
X143438402Y-74374638D01*
X143451737Y-74464532D01*
X143456196Y-74555300D01*
X143451737Y-74646068D01*
X143438402Y-74735962D01*
X143416321Y-74824116D01*
X143385705Y-74909681D01*
X143346850Y-74991833D01*
X143300130Y-75069781D01*
X143245994Y-75142775D01*
X143184965Y-75210110D01*
X143117629Y-75271140D01*
X143044635Y-75325276D01*
X142966687Y-75371996D01*
X142884535Y-75410851D01*
X142798970Y-75441467D01*
X142710816Y-75463548D01*
X142620922Y-75476883D01*
X142530154Y-75481342D01*
X142199425Y-75481342D01*
X141346937Y-75481342D01*
X140327762Y-75481342D01*
X139926125Y-75481342D01*
X139595396Y-75481342D01*
X139504628Y-75476883D01*
X139414734Y-75463548D01*
X139326580Y-75441467D01*
X139241015Y-75410851D01*
X139158863Y-75371996D01*
X139080915Y-75325276D01*
X139007921Y-75271140D01*
X138940585Y-75210110D01*
X138879556Y-75142775D01*
X138825420Y-75069781D01*
X138778700Y-74991833D01*
X138739845Y-74909681D01*
X138709229Y-74824116D01*
X138687148Y-74735962D01*
X138673813Y-74646068D01*
X138669354Y-74555300D01*
X138670134Y-74539425D01*
X139926125Y-74539425D01*
X139932401Y-74682672D01*
X139951227Y-74806820D01*
X139982605Y-74911867D01*
X140026534Y-74997816D01*
X140083015Y-75064664D01*
X140152046Y-75112413D01*
X140233629Y-75141063D01*
X140327762Y-75150612D01*
X140433728Y-75140691D01*
X140529375Y-75110925D01*
X140529375Y-74964875D01*
X140438887Y-75001784D01*
X140354750Y-75014087D01*
X140277139Y-75000902D01*
X140213639Y-74961347D01*
X140164250Y-74895422D01*
X140128972Y-74803126D01*
X140107806Y-74684461D01*
X140100750Y-74539425D01*
X140107144Y-74405061D01*
X140126326Y-74295126D01*
X140158297Y-74209622D01*
X140203056Y-74148547D01*
X140260602Y-74111902D01*
X140330937Y-74099687D01*
X140367450Y-74106037D01*
X140367450Y-74353687D01*
X140537312Y-74353687D01*
X140537312Y-73994913D01*
X140463711Y-73975863D01*
X140799250Y-73975863D01*
X140799250Y-75134737D01*
X141346937Y-75134737D01*
X141532675Y-75134737D01*
X141710475Y-75134737D01*
X141710475Y-74653725D01*
X141772387Y-74653725D01*
X141868431Y-74684681D01*
X141898792Y-74729330D01*
X141924787Y-74801363D01*
X142016862Y-75134737D01*
X142199425Y-75134737D01*
X142101000Y-74810887D01*
X142050200Y-74686269D01*
X141989875Y-74607687D01*
X141989875Y-74604512D01*
X142067662Y-74559070D01*
X142123225Y-74494181D01*
X142156562Y-74409845D01*
X142167675Y-74306062D01*
X142157885Y-74197142D01*
X142128517Y-74109565D01*
X142079569Y-74043331D01*
X142009631Y-73997029D01*
X141917291Y-73969248D01*
X141802550Y-73959987D01*
X141711181Y-73963515D01*
X141621222Y-73974099D01*
X141532675Y-73991737D01*
X141532675Y-75134737D01*
X141346937Y-75134737D01*
X141346937Y-74996625D01*
X140977050Y-74996625D01*
X140977050Y-73975863D01*
X140799250Y-73975863D01*
X140463711Y-73975863D01*
X140436109Y-73968719D01*
X140323000Y-73959987D01*
X140229982Y-73969041D01*
X140149367Y-73996202D01*
X140081154Y-74041471D01*
X140025344Y-74104847D01*
X139981936Y-74186330D01*
X139950930Y-74285921D01*
X139932326Y-74403619D01*
X139926125Y-74539425D01*
X138670134Y-74539425D01*
X138673813Y-74464532D01*
X138687148Y-74374638D01*
X138709229Y-74286484D01*
X138739845Y-74200919D01*
X138778700Y-74118767D01*
X138825420Y-74040819D01*
X138879556Y-73967825D01*
X138940585Y-73900490D01*
X139007921Y-73839460D01*
X139080915Y-73785324D01*
X139158863Y-73738604D01*
X139241015Y-73699749D01*
X139326580Y-73669133D01*
X139414734Y-73647052D01*
X139504628Y-73633717D01*
X139595396Y-73629258D01*
X139926125Y-73629258D01*
X142199425Y-73629258D01*
X142530154Y-73629258D01*
X142620922Y-73633717D01*
G37*
%TO.C,kibuzzard-6571E781*%
G36*
X141158025Y-76945000D02*
G01*
X140940537Y-76945000D01*
X141048487Y-76400487D01*
X141050075Y-76400487D01*
X141158025Y-76945000D01*
G37*
G36*
X141891847Y-76372706D02*
G01*
X141967650Y-76446525D01*
X142000282Y-76528369D01*
X142019861Y-76642669D01*
X142026387Y-76789425D01*
X142019949Y-76951526D01*
X142000635Y-77075881D01*
X141968444Y-77162488D01*
X141892839Y-77238688D01*
X141781912Y-77264087D01*
X141710475Y-77249800D01*
X141710475Y-76362387D01*
X141781912Y-76348100D01*
X141891847Y-76372706D01*
G37*
G36*
X140341653Y-76372508D02*
G01*
X140397612Y-76445731D01*
X140421425Y-76529075D01*
X140435712Y-76648931D01*
X140440475Y-76805300D01*
X140435712Y-76961669D01*
X140421425Y-77081525D01*
X140397612Y-77164869D01*
X140341653Y-77238092D01*
X140259500Y-77262500D01*
X140177347Y-77238092D01*
X140121387Y-77164869D01*
X140097575Y-77081525D01*
X140083287Y-76961669D01*
X140078525Y-76805300D01*
X140083287Y-76648931D01*
X140097575Y-76529075D01*
X140121387Y-76445731D01*
X140177347Y-76372508D01*
X140259500Y-76348100D01*
X140341653Y-76372508D01*
G37*
G36*
X142620922Y-75883717D02*
G01*
X142710816Y-75897052D01*
X142798970Y-75919133D01*
X142884535Y-75949749D01*
X142966687Y-75988604D01*
X143044635Y-76035324D01*
X143117629Y-76089460D01*
X143184965Y-76150490D01*
X143245994Y-76217825D01*
X143300130Y-76290819D01*
X143346850Y-76368767D01*
X143385705Y-76450919D01*
X143416321Y-76536484D01*
X143438402Y-76624638D01*
X143451737Y-76714532D01*
X143456196Y-76805300D01*
X143451737Y-76896068D01*
X143438402Y-76985962D01*
X143416321Y-77074116D01*
X143385705Y-77159681D01*
X143346850Y-77241833D01*
X143300130Y-77319781D01*
X143245994Y-77392775D01*
X143184965Y-77460110D01*
X143117629Y-77521140D01*
X143044635Y-77575276D01*
X142966687Y-77621996D01*
X142884535Y-77660851D01*
X142798970Y-77691467D01*
X142710816Y-77713548D01*
X142620922Y-77726883D01*
X142530154Y-77731342D01*
X142199425Y-77731342D01*
X141781912Y-77731342D01*
X140675425Y-77731342D01*
X140259500Y-77731342D01*
X139767375Y-77731342D01*
X138433875Y-77731342D01*
X138103146Y-77731342D01*
X138012378Y-77726883D01*
X137922484Y-77713548D01*
X137834330Y-77691467D01*
X137748765Y-77660851D01*
X137666613Y-77621996D01*
X137588665Y-77575276D01*
X137515671Y-77521140D01*
X137448335Y-77460110D01*
X137387306Y-77392775D01*
X137333170Y-77319781D01*
X137286450Y-77241833D01*
X137247595Y-77159681D01*
X137216979Y-77074116D01*
X137194898Y-76985962D01*
X137181563Y-76896068D01*
X137179288Y-76849750D01*
X138433875Y-76849750D01*
X138433875Y-76981513D01*
X138910125Y-76981513D01*
X138910125Y-76849750D01*
X138433875Y-76849750D01*
X137179288Y-76849750D01*
X137177104Y-76805300D01*
X137181563Y-76714532D01*
X137194898Y-76624638D01*
X137216979Y-76536484D01*
X137247595Y-76450919D01*
X137286450Y-76368767D01*
X137333170Y-76290819D01*
X137381345Y-76225863D01*
X139219687Y-76225863D01*
X139219687Y-77384737D01*
X139767375Y-77384737D01*
X139767375Y-77246625D01*
X139397487Y-77246625D01*
X139397487Y-76805300D01*
X139910250Y-76805300D01*
X139914572Y-76944294D01*
X139927536Y-77062828D01*
X139949144Y-77160900D01*
X139996967Y-77273216D01*
X140062650Y-77346637D01*
X140149169Y-77387119D01*
X140259500Y-77400612D01*
X140369831Y-77387119D01*
X140374922Y-77384737D01*
X140675425Y-77384737D01*
X140853225Y-77384737D01*
X140913550Y-77079938D01*
X141185012Y-77079938D01*
X141245337Y-77384737D01*
X141429487Y-77384737D01*
X141425725Y-77368863D01*
X141532675Y-77368863D01*
X141652134Y-77392675D01*
X141781912Y-77400612D01*
X141913675Y-77386920D01*
X142016862Y-77345844D01*
X142095245Y-77271033D01*
X142152594Y-77156138D01*
X142178611Y-77055419D01*
X142194222Y-76933182D01*
X142199425Y-76789425D01*
X142193323Y-76641043D01*
X142175017Y-76516573D01*
X142144507Y-76416015D01*
X142101794Y-76339369D01*
X142022860Y-76267490D01*
X141916233Y-76224363D01*
X141781912Y-76209987D01*
X141656897Y-76217925D01*
X141532675Y-76241737D01*
X141532675Y-77368863D01*
X141425725Y-77368863D01*
X141154850Y-76225863D01*
X140948475Y-76225863D01*
X140675425Y-77384737D01*
X140374922Y-77384737D01*
X140456350Y-77346637D01*
X140522033Y-77273216D01*
X140569856Y-77160900D01*
X140591464Y-77062828D01*
X140604428Y-76944294D01*
X140608750Y-76805300D01*
X140604428Y-76666306D01*
X140591464Y-76547772D01*
X140569856Y-76449700D01*
X140522033Y-76337384D01*
X140456350Y-76263963D01*
X140369831Y-76223481D01*
X140259500Y-76209987D01*
X140149169Y-76223481D01*
X140062650Y-76263963D01*
X139996967Y-76337384D01*
X139949144Y-76449700D01*
X139927536Y-76547772D01*
X139914572Y-76666306D01*
X139910250Y-76805300D01*
X139397487Y-76805300D01*
X139397487Y-76225863D01*
X139219687Y-76225863D01*
X137381345Y-76225863D01*
X137387306Y-76217825D01*
X137448335Y-76150490D01*
X137515671Y-76089460D01*
X137588665Y-76035324D01*
X137666613Y-75988604D01*
X137748765Y-75949749D01*
X137834330Y-75919133D01*
X137922484Y-75897052D01*
X138012378Y-75883717D01*
X138103146Y-75879258D01*
X138433875Y-75879258D01*
X142199425Y-75879258D01*
X142530154Y-75879258D01*
X142620922Y-75883717D01*
G37*
%TO.C,R3*%
X123130000Y-109936359D02*
X123130000Y-110243641D01*
X122370000Y-109936359D02*
X122370000Y-110243641D01*
%TO.C,D8*%
X111135000Y-103915000D02*
X108865000Y-103915000D01*
X108865000Y-103915000D02*
X108865000Y-107800000D01*
X111135000Y-107800000D02*
X111135000Y-103915000D01*
%TO.C,Q2*%
X132060000Y-100600000D02*
X132060000Y-98925000D01*
X132060000Y-100600000D02*
X132060000Y-101250000D01*
X128940000Y-100600000D02*
X128940000Y-99950000D01*
X128940000Y-100600000D02*
X128940000Y-101250000D01*
%TO.C,D7*%
X114135000Y-103915000D02*
X111865000Y-103915000D01*
X111865000Y-103915000D02*
X111865000Y-107800000D01*
X114135000Y-107800000D02*
X114135000Y-103915000D01*
%TO.C,Q1*%
X136060000Y-100600000D02*
X136060000Y-98925000D01*
X136060000Y-100600000D02*
X136060000Y-101250000D01*
X132940000Y-100600000D02*
X132940000Y-99950000D01*
X132940000Y-100600000D02*
X132940000Y-101250000D01*
%TO.C,R10*%
X144783259Y-82120000D02*
X145090541Y-82120000D01*
X144783259Y-82880000D02*
X145090541Y-82880000D01*
%TO.C,U2*%
X125725000Y-81467500D02*
X122275000Y-81467500D01*
X125725000Y-81467500D02*
X127675000Y-81467500D01*
X125725000Y-91587500D02*
X123775000Y-91587500D01*
X125725000Y-91587500D02*
X127675000Y-91587500D01*
%TO.C,R9*%
X145090541Y-84880000D02*
X144783259Y-84880000D01*
X145090541Y-84120000D02*
X144783259Y-84120000D01*
%TO.C,Q5*%
X120060000Y-100600000D02*
X120060000Y-98925000D01*
X120060000Y-100600000D02*
X120060000Y-101250000D01*
X116940000Y-100600000D02*
X116940000Y-99950000D01*
X116940000Y-100600000D02*
X116940000Y-101250000D01*
%TO.C,D2*%
X129135000Y-103915000D02*
X126865000Y-103915000D01*
X126865000Y-103915000D02*
X126865000Y-107800000D01*
X129135000Y-107800000D02*
X129135000Y-103915000D01*
%TO.C,Q7*%
X112060000Y-100600000D02*
X112060000Y-98925000D01*
X112060000Y-100600000D02*
X112060000Y-101250000D01*
X108940000Y-100600000D02*
X108940000Y-99950000D01*
X108940000Y-100600000D02*
X108940000Y-101250000D01*
%TO.C,U1*%
X115275000Y-81467500D02*
X111825000Y-81467500D01*
X115275000Y-81467500D02*
X117225000Y-81467500D01*
X115275000Y-91587500D02*
X113325000Y-91587500D01*
X115275000Y-91587500D02*
X117225000Y-91587500D01*
%TO.C,Q8*%
X108060000Y-100600000D02*
X108060000Y-98925000D01*
X108060000Y-100600000D02*
X108060000Y-101250000D01*
X104940000Y-100600000D02*
X104940000Y-99950000D01*
X104940000Y-100600000D02*
X104940000Y-101250000D01*
%TO.C,D3*%
X126135000Y-103915000D02*
X123865000Y-103915000D01*
X123865000Y-103915000D02*
X123865000Y-107800000D01*
X126135000Y-107800000D02*
X126135000Y-103915000D01*
%TO.C,R4*%
X121630000Y-109946359D02*
X121630000Y-110253641D01*
X120870000Y-109946359D02*
X120870000Y-110253641D01*
%TO.C,Q4*%
X124060000Y-100600000D02*
X124060000Y-98925000D01*
X124060000Y-100600000D02*
X124060000Y-101250000D01*
X120940000Y-100600000D02*
X120940000Y-99950000D01*
X120940000Y-100600000D02*
X120940000Y-101250000D01*
%TO.C,R5*%
X120130000Y-109936359D02*
X120130000Y-110243641D01*
X119370000Y-109936359D02*
X119370000Y-110243641D01*
%TO.C,R8*%
X115630000Y-109936359D02*
X115630000Y-110243641D01*
X114870000Y-109936359D02*
X114870000Y-110243641D01*
%TO.C,R1*%
X126130000Y-109936359D02*
X126130000Y-110243641D01*
X125370000Y-109936359D02*
X125370000Y-110243641D01*
%TO.C,J2*%
X93435300Y-101745000D02*
X92165300Y-101745000D01*
X93435300Y-100475000D02*
X93435300Y-101745000D01*
X91122371Y-98315000D02*
X90725300Y-98315000D01*
X91122371Y-97555000D02*
X90725300Y-97555000D01*
X91122371Y-95775000D02*
X90725300Y-95775000D01*
X91122371Y-95015000D02*
X90725300Y-95015000D01*
X91122371Y-93235000D02*
X90725300Y-93235000D01*
X91122371Y-92475000D02*
X90725300Y-92475000D01*
X91122371Y-90695000D02*
X90725300Y-90695000D01*
X91122371Y-89935000D02*
X90725300Y-89935000D01*
X91122371Y-88155000D02*
X90725300Y-88155000D01*
X91122371Y-87395000D02*
X90725300Y-87395000D01*
X91122371Y-85615000D02*
X90725300Y-85615000D01*
X91122371Y-84855000D02*
X90725300Y-84855000D01*
X91122371Y-83075000D02*
X90725300Y-83075000D01*
X91122371Y-82315000D02*
X90725300Y-82315000D01*
X91055300Y-100855000D02*
X90725300Y-100855000D01*
X91055300Y-100095000D02*
X90725300Y-100095000D01*
X90725300Y-101805000D02*
X90725300Y-81365000D01*
X90725300Y-99205000D02*
X88065300Y-99205000D01*
X90725300Y-96665000D02*
X88065300Y-96665000D01*
X90725300Y-94125000D02*
X88065300Y-94125000D01*
X90725300Y-91585000D02*
X88065300Y-91585000D01*
X90725300Y-89045000D02*
X88065300Y-89045000D01*
X90725300Y-86505000D02*
X88065300Y-86505000D01*
X90725300Y-83965000D02*
X88065300Y-83965000D01*
X90725300Y-81365000D02*
X88065300Y-81365000D01*
X88065300Y-101805000D02*
X90725300Y-101805000D01*
X88065300Y-100855000D02*
X82065300Y-100855000D01*
X88065300Y-100795000D02*
X82065300Y-100795000D01*
X88065300Y-100675000D02*
X82065300Y-100675000D01*
X88065300Y-100555000D02*
X82065300Y-100555000D01*
X88065300Y-100435000D02*
X82065300Y-100435000D01*
X88065300Y-100315000D02*
X82065300Y-100315000D01*
X88065300Y-100195000D02*
X82065300Y-100195000D01*
X88065300Y-98315000D02*
X82065300Y-98315000D01*
X88065300Y-95775000D02*
X82065300Y-95775000D01*
X88065300Y-93235000D02*
X82065300Y-93235000D01*
X88065300Y-90695000D02*
X82065300Y-90695000D01*
X88065300Y-88155000D02*
X82065300Y-88155000D01*
X88065300Y-85615000D02*
X82065300Y-85615000D01*
X88065300Y-83075000D02*
X82065300Y-83075000D01*
X88065300Y-81365000D02*
X88065300Y-101805000D01*
X82065300Y-100855000D02*
X82065300Y-100095000D01*
X82065300Y-100095000D02*
X88065300Y-100095000D01*
X82065300Y-98315000D02*
X82065300Y-97555000D01*
X82065300Y-97555000D02*
X88065300Y-97555000D01*
X82065300Y-95775000D02*
X82065300Y-95015000D01*
X82065300Y-95015000D02*
X88065300Y-95015000D01*
X82065300Y-93235000D02*
X82065300Y-92475000D01*
X82065300Y-92475000D02*
X88065300Y-92475000D01*
X82065300Y-90695000D02*
X82065300Y-89935000D01*
X82065300Y-89935000D02*
X88065300Y-89935000D01*
X82065300Y-88155000D02*
X82065300Y-87395000D01*
X82065300Y-87395000D02*
X88065300Y-87395000D01*
X82065300Y-85615000D02*
X82065300Y-84855000D01*
X82065300Y-84855000D02*
X88065300Y-84855000D01*
X82065300Y-83075000D02*
X82065300Y-82315000D01*
X82065300Y-82315000D02*
X88065300Y-82315000D01*
%TO.C,J1*%
X146946900Y-81600000D02*
X147946900Y-81600000D01*
X146946900Y-82600000D02*
X146946900Y-81600000D01*
X148829014Y-84290000D02*
X149064786Y-84290000D01*
X148829014Y-84910000D02*
X149064786Y-84910000D01*
X148829014Y-86290000D02*
X149064786Y-86290000D01*
X148829014Y-86910000D02*
X149064786Y-86910000D01*
X148829014Y-88290000D02*
X149064786Y-88290000D01*
X148829014Y-88910000D02*
X149064786Y-88910000D01*
X148829014Y-90290000D02*
X149064786Y-90290000D01*
X148829014Y-90910000D02*
X149064786Y-90910000D01*
X148829014Y-92290000D02*
X149064786Y-92290000D01*
X148829014Y-92910000D02*
X149064786Y-92910000D01*
X148829014Y-94290000D02*
X149064786Y-94290000D01*
X148829014Y-94910000D02*
X149064786Y-94910000D01*
X148829014Y-96290000D02*
X149064786Y-96290000D01*
X148829014Y-96910000D02*
X149064786Y-96910000D01*
X148829014Y-98290000D02*
X149064786Y-98290000D01*
X148829014Y-98910000D02*
X149064786Y-98910000D01*
X148829014Y-100290000D02*
X149064786Y-100290000D01*
X148829014Y-100910000D02*
X149064786Y-100910000D01*
X148881900Y-82290000D02*
X149064786Y-82290000D01*
X148881900Y-82910000D02*
X149064786Y-82910000D01*
X150829014Y-82290000D02*
X151386900Y-82290000D01*
X150829014Y-82910000D02*
X151386900Y-82910000D01*
X150829014Y-84290000D02*
X151386900Y-84290000D01*
X150829014Y-84910000D02*
X151386900Y-84910000D01*
X150829014Y-86290000D02*
X151386900Y-86290000D01*
X150829014Y-86910000D02*
X151386900Y-86910000D01*
X150829014Y-88290000D02*
X151386900Y-88290000D01*
X150829014Y-88910000D02*
X151386900Y-88910000D01*
X150829014Y-90290000D02*
X151386900Y-90290000D01*
X150829014Y-90910000D02*
X151386900Y-90910000D01*
X150829014Y-92290000D02*
X151386900Y-92290000D01*
X150829014Y-92910000D02*
X151386900Y-92910000D01*
X150829014Y-94290000D02*
X151386900Y-94290000D01*
X150829014Y-94910000D02*
X151386900Y-94910000D01*
X150829014Y-96290000D02*
X151386900Y-96290000D01*
X150829014Y-96910000D02*
X151386900Y-96910000D01*
X150829014Y-98290000D02*
X151386900Y-98290000D01*
X150829014Y-98910000D02*
X151386900Y-98910000D01*
X150829014Y-100290000D02*
X151386900Y-100290000D01*
X150829014Y-100910000D02*
X151386900Y-100910000D01*
X151386900Y-81540000D02*
X151386900Y-101660000D01*
X151386900Y-83600000D02*
X153006900Y-83600000D01*
X151386900Y-85600000D02*
X153006900Y-85600000D01*
X151386900Y-87600000D02*
X153006900Y-87600000D01*
X151386900Y-89600000D02*
X153006900Y-89600000D01*
X151386900Y-91600000D02*
X153006900Y-91600000D01*
X151386900Y-93600000D02*
X153006900Y-93600000D01*
X151386900Y-95600000D02*
X153006900Y-95600000D01*
X151386900Y-97600000D02*
X153006900Y-97600000D01*
X151386900Y-99600000D02*
X153006900Y-99600000D01*
X151386900Y-101660000D02*
X153006900Y-101660000D01*
X153006900Y-81540000D02*
X151386900Y-81540000D01*
X153006900Y-82290000D02*
X157206900Y-82290000D01*
X153006900Y-82350000D02*
X157206900Y-82350000D01*
X153006900Y-82470000D02*
X157206900Y-82470000D01*
X153006900Y-82590000D02*
X157206900Y-82590000D01*
X153006900Y-82710000D02*
X157206900Y-82710000D01*
X153006900Y-82830000D02*
X157206900Y-82830000D01*
X153006900Y-84290000D02*
X157206900Y-84290000D01*
X153006900Y-86290000D02*
X157206900Y-86290000D01*
X153006900Y-88290000D02*
X157206900Y-88290000D01*
X153006900Y-90290000D02*
X157206900Y-90290000D01*
X153006900Y-92290000D02*
X157206900Y-92290000D01*
X153006900Y-94290000D02*
X157206900Y-94290000D01*
X153006900Y-96290000D02*
X157206900Y-96290000D01*
X153006900Y-98290000D02*
X157206900Y-98290000D01*
X153006900Y-100290000D02*
X157206900Y-100290000D01*
X153006900Y-101660000D02*
X153006900Y-81540000D01*
X157206900Y-82290000D02*
X157206900Y-82910000D01*
X157206900Y-82910000D02*
X153006900Y-82910000D01*
X157206900Y-84290000D02*
X157206900Y-84910000D01*
X157206900Y-84910000D02*
X153006900Y-84910000D01*
X157206900Y-86290000D02*
X157206900Y-86910000D01*
X157206900Y-86910000D02*
X153006900Y-86910000D01*
X157206900Y-88290000D02*
X157206900Y-88910000D01*
X157206900Y-88910000D02*
X153006900Y-88910000D01*
X157206900Y-90290000D02*
X157206900Y-90910000D01*
X157206900Y-90910000D02*
X153006900Y-90910000D01*
X157206900Y-92290000D02*
X157206900Y-92910000D01*
X157206900Y-92910000D02*
X153006900Y-92910000D01*
X157206900Y-94290000D02*
X157206900Y-94910000D01*
X157206900Y-94910000D02*
X153006900Y-94910000D01*
X157206900Y-96290000D02*
X157206900Y-96910000D01*
X157206900Y-96910000D02*
X153006900Y-96910000D01*
X157206900Y-98290000D02*
X157206900Y-98910000D01*
X157206900Y-98910000D02*
X153006900Y-98910000D01*
X157206900Y-100290000D02*
X157206900Y-100910000D01*
X157206900Y-100910000D02*
X153006900Y-100910000D01*
%TO.C,D6*%
X117135000Y-103915000D02*
X114865000Y-103915000D01*
X114865000Y-103915000D02*
X114865000Y-107800000D01*
X117135000Y-107800000D02*
X117135000Y-103915000D01*
%TO.C,D1*%
X132135000Y-103915000D02*
X129865000Y-103915000D01*
X129865000Y-103915000D02*
X129865000Y-107800000D01*
X132135000Y-107800000D02*
X132135000Y-103915000D01*
%TO.C,R6*%
X118630000Y-109936359D02*
X118630000Y-110243641D01*
X117870000Y-109936359D02*
X117870000Y-110243641D01*
%TO.C,R2*%
X124630000Y-109936359D02*
X124630000Y-110243641D01*
X123870000Y-109936359D02*
X123870000Y-110243641D01*
%TO.C,R7*%
X117130000Y-109936359D02*
X117130000Y-110243641D01*
X116370000Y-109936359D02*
X116370000Y-110243641D01*
%TD*%
M02*
